<?xml version="1.0" encoding="UTF-8"?>
<svg xmlns="http://www.w3.org/2000/svg" viewBox="0 0 899 230.99">
  <defs>
    <style>
      .cls-1, .cls-2 {
        fill: none;
        stroke: #3b4856;
        stroke-linecap: round;
        stroke-linejoin: round;
      }

      .cls-2 {
        stroke-width: .5px;
      }

      .cls-2, .cls-3, .cls-4 {
        opacity: .4;
      }

      .cls-5 {
        fill: #eaf4f9;
      }

      .cls-6 {
        fill: #fff;
      }

      .cls-7, .cls-4 {
        fill: #ffc100;
      }

      .cls-8, .cls-3 {
        fill: #3b4856;
      }

      .cls-9 {
        opacity: .6;
      }
    </style>
  </defs>
  <g id="Back">
    <rect class="cls-6" x="0" width="899" height="230.99"/>
  </g>
  <g id="Maket">
    <rect class="cls-5" x="85.04" y="62.21" width="738.35" height="33.82"/>
    <rect class="cls-6" x="85.04" y="96.03" width="738.35" height="33.82"/>
    <rect class="cls-5" x="85.04" y="129.84" width="738.35" height="33.82"/>
    <rect class="cls-6" x="85.04" y="163.66" width="738.35" height="33.82"/>
    <g>
      <circle class="cls-6" cx="121.96" cy="146.75" r="6"/>
      <circle class="cls-3" cx="121.96" cy="146.75" r="6"/>
      <g class="cls-9">
        <path class="cls-8" d="M121.96,142.75c2.21,0,4,1.79,4,4s-1.79,4-4,4-4-1.79-4-4,1.79-4,4-4m0-2c-3.31,0-6,2.69-6,6s2.69,6,6,6,6-2.69,6-6-2.69-6-6-6h0Z"/>
      </g>
    </g>
    <g>
      <circle class="cls-6" cx="269.63" cy="146.75" r="6"/>
      <circle class="cls-3" cx="269.63" cy="146.75" r="6"/>
      <g class="cls-9">
        <path class="cls-8" d="M269.63,142.75c2.21,0,4,1.79,4,4s-1.79,4-4,4-4-1.79-4-4,1.79-4,4-4m0-2c-3.31,0-6,2.69-6,6s2.69,6,6,6,6-2.69,6-6-2.69-6-6-6h0Z"/>
      </g>
    </g>
    <g>
      <circle class="cls-6" cx="417.3" cy="146.75" r="6"/>
      <circle class="cls-3" cx="417.3" cy="146.75" r="6"/>
      <g class="cls-9">
        <path class="cls-8" d="M417.3,142.75c2.21,0,4,1.79,4,4s-1.79,4-4,4-4-1.79-4-4,1.79-4,4-4m0-2c-3.31,0-6,2.69-6,6s2.69,6,6,6,6-2.69,6-6-2.69-6-6-6h0Z"/>
      </g>
    </g>
    <g>
      <circle class="cls-6" cx="417.3" cy="180.57" r="6"/>
      <circle class="cls-3" cx="417.3" cy="180.57" r="6"/>
      <g class="cls-9">
        <path class="cls-8" d="M417.3,176.57c2.21,0,4,1.79,4,4s-1.79,4-4,4-4-1.79-4-4,1.79-4,4-4m0-2c-3.31,0-6,2.69-6,6s2.69,6,6,6,6-2.69,6-6-2.69-6-6-6h0Z"/>
      </g>
    </g>
    <g>
      <circle class="cls-6" cx="417.3" cy="79.12" r="6"/>
      <circle class="cls-3" cx="417.3" cy="79.12" r="6"/>
      <g class="cls-9">
        <path class="cls-8" d="M417.3,75.12c2.21,0,4,1.79,4,4s-1.79,4-4,4-4-1.79-4-4,1.79-4,4-4m0-2c-3.31,0-6,2.69-6,6s2.69,6,6,6,6-2.69,6-6-2.69-6-6-6h0Z"/>
      </g>
    </g>
    <g>
      <circle class="cls-6" cx="786.47" cy="180.57" r="6"/>
      <circle class="cls-3" cx="786.47" cy="180.57" r="6"/>
      <g class="cls-9">
        <path class="cls-8" d="M786.47,176.57c2.21,0,4,1.79,4,4s-1.79,4-4,4-4-1.79-4-4,1.79-4,4-4m0-2c-3.31,0-6,2.69-6,6s2.69,6,6,6,6-2.69,6-6-2.69-6-6-6h0Z"/>
      </g>
    </g>
    <g>
      <circle class="cls-6" cx="343.46" cy="79.12" r="6"/>
      <circle class="cls-3" cx="343.46" cy="79.12" r="6"/>
      <g class="cls-9">
        <path class="cls-8" d="M343.46,75.12c2.21,0,4,1.79,4,4s-1.79,4-4,4-4-1.79-4-4,1.79-4,4-4m0-2c-3.31,0-6,2.69-6,6s2.69,6,6,6,6-2.69,6-6-2.69-6-6-6h0Z"/>
      </g>
    </g>
    <line class="cls-2" x1="158.87" y1="62.21" x2="158.87" y2="197.48"/>
    <line class="cls-2" x1="232.71" y1="62.21" x2="232.71" y2="197.48"/>
    <line class="cls-2" x1="306.54" y1="62.21" x2="306.54" y2="197.48"/>
    <line class="cls-2" x1="380.38" y1="62.21" x2="380.38" y2="197.48"/>
    <line class="cls-2" x1="454.21" y1="62.21" x2="454.21" y2="197.48"/>
    <line class="cls-2" x1="528.05" y1="62.21" x2="528.05" y2="197.48"/>
    <line class="cls-2" x1="601.88" y1="62.21" x2="601.88" y2="197.48"/>
    <line class="cls-2" x1="675.72" y1="62.21" x2="675.72" y2="197.48"/>
    <line class="cls-2" x1="749.55" y1="62.21" x2="749.55" y2="197.48"/>
    <g>
      <g>
        <circle class="cls-6" cx="121.96" cy="180.57" r="5"/>
        <path class="cls-7" d="M121.96,176.57c2.21,0,4,1.79,4,4s-1.79,4-4,4-4-1.79-4-4,1.79-4,4-4m0-2c-3.31,0-6,2.69-6,6s2.69,6,6,6,6-2.69,6-6-2.69-6-6-6h0Z"/>
      </g>
      <circle class="cls-4" cx="121.96" cy="180.57" r="6"/>
    </g>
    <g>
      <g>
        <circle class="cls-6" cx="121.96" cy="79.12" r="5"/>
        <path class="cls-7" d="M121.96,75.12c2.21,0,4,1.79,4,4s-1.79,4-4,4-4-1.79-4-4,1.79-4,4-4m0-2c-3.31,0-6,2.69-6,6s2.69,6,6,6,6-2.69,6-6-2.69-6-6-6h0Z"/>
      </g>
      <circle class="cls-4" cx="121.96" cy="79.12" r="6"/>
    </g>
    <g>
      <g>
        <circle class="cls-6" cx="195.79" cy="112.94" r="5"/>
        <path class="cls-7" d="M195.79,108.94c2.21,0,4,1.79,4,4s-1.79,4-4,4-4-1.79-4-4,1.79-4,4-4m0-2c-3.31,0-6,2.69-6,6s2.69,6,6,6,6-2.69,6-6-2.69-6-6-6h0Z"/>
      </g>
      <circle class="cls-4" cx="195.79" cy="112.94" r="6"/>
    </g>
    <g>
      <g>
        <circle class="cls-6" cx="269.63" cy="79.12" r="5"/>
        <path class="cls-7" d="M269.63,75.12c2.21,0,4,1.79,4,4s-1.79,4-4,4-4-1.79-4-4,1.79-4,4-4m0-2c-3.31,0-6,2.69-6,6s2.69,6,6,6,6-2.69,6-6-2.69-6-6-6h0Z"/>
      </g>
      <circle class="cls-4" cx="269.63" cy="79.12" r="6"/>
    </g>
    <g>
      <g>
        <circle class="cls-6" cx="343.46" cy="180.57" r="5"/>
        <path class="cls-7" d="M343.46,176.57c2.21,0,4,1.79,4,4s-1.79,4-4,4-4-1.79-4-4,1.79-4,4-4m0-2c-3.31,0-6,2.69-6,6s2.69,6,6,6,6-2.69,6-6-2.69-6-6-6h0Z"/>
      </g>
      <circle class="cls-4" cx="343.46" cy="180.57" r="6"/>
    </g>
    <g>
      <g>
        <circle class="cls-6" cx="564.97" cy="146.75" r="5"/>
        <path class="cls-7" d="M564.97,142.75c2.21,0,4,1.79,4,4s-1.79,4-4,4-4-1.79-4-4,1.79-4,4-4m0-2c-3.31,0-6,2.69-6,6s2.69,6,6,6,6-2.69,6-6-2.69-6-6-6h0Z"/>
      </g>
      <circle class="cls-4" cx="564.97" cy="146.75" r="6"/>
    </g>
    <g>
      <g>
        <circle class="cls-6" cx="638.8" cy="180.57" r="5"/>
        <path class="cls-7" d="M638.8,176.57c2.21,0,4,1.79,4,4s-1.79,4-4,4-4-1.79-4-4,1.79-4,4-4m0-2c-3.31,0-6,2.69-6,6s2.69,6,6,6,6-2.69,6-6-2.69-6-6-6h0Z"/>
      </g>
      <circle class="cls-4" cx="638.8" cy="180.57" r="6"/>
    </g>
    <g>
      <g>
        <circle class="cls-6" cx="638.8" cy="79.12" r="5"/>
        <path class="cls-7" d="M638.8,75.12c2.21,0,4,1.79,4,4s-1.79,4-4,4-4-1.79-4-4,1.79-4,4-4m0-2c-3.31,0-6,2.69-6,6s2.69,6,6,6,6-2.69,6-6-2.69-6-6-6h0Z"/>
      </g>
      <circle class="cls-4" cx="638.8" cy="79.12" r="6"/>
    </g>
    <g>
      <g>
        <circle class="cls-6" cx="786.47" cy="146.75" r="5"/>
        <path class="cls-7" d="M786.47,142.75c2.21,0,4,1.79,4,4s-1.79,4-4,4-4-1.79-4-4,1.79-4,4-4m0-2c-3.31,0-6,2.69-6,6s2.69,6,6,6,6-2.69,6-6-2.69-6-6-6h0Z"/>
      </g>
      <circle class="cls-4" cx="786.47" cy="146.75" r="6"/>
    </g>
    <g>
      <circle class="cls-6" cx="343.46" cy="112.94" r="6"/>
      <circle class="cls-3" cx="343.46" cy="112.94" r="6"/>
      <g class="cls-9">
        <path class="cls-8" d="M343.46,108.94c2.21,0,4,1.79,4,4s-1.79,4-4,4-4-1.79-4-4,1.79-4,4-4m0-2c-3.31,0-6,2.69-6,6s2.69,6,6,6,6-2.69,6-6-2.69-6-6-6h0Z"/>
      </g>
    </g>
    <rect class="cls-1" x="386.58" y="-239.33" width="135.27" height="738.35" transform="translate(584.06 -324.37) rotate(90)"/>
  </g>
  <g id="Txt">
    <g>
      <path class="cls-8" d="M31.05,72.57h10.1v12.91h-2.2v-11.03h-5.72v11.03h-2.18v-12.91Z"/>
      <path class="cls-8" d="M51.5,84.8c-.13,.08-.29,.18-.49,.28-.19,.1-.42,.19-.68,.28-.26,.08-.57,.16-.92,.22-.35,.06-.74,.09-1.19,.09-1.72,0-3-.43-3.84-1.28-.85-.85-1.27-2.05-1.27-3.58,0-.76,.11-1.43,.34-2.03,.23-.6,.55-1.11,.95-1.52,.41-.41,.89-.73,1.46-.96,.56-.22,1.18-.33,1.85-.33s1.32,.11,1.88,.34c.56,.23,1.02,.57,1.38,1.03,.36,.46,.61,1.02,.75,1.69,.14,.67,.14,1.46,0,2.36h-6.46c.08,.85,.37,1.49,.85,1.92,.48,.43,1.23,.64,2.25,.64,.74,0,1.36-.09,1.86-.28,.5-.19,.92-.38,1.27-.58v1.73Zm-3.78-7.18c-.61,0-1.13,.19-1.55,.56-.42,.37-.7,.92-.83,1.66h4.39c.02-.76-.14-1.31-.5-1.67-.36-.36-.86-.54-1.51-.54Z"/>
      <path class="cls-8" d="M57.72,77.83v7.65h-2.09v-7.65h-2.83v-1.69h7.79v1.69h-2.88Z"/>
      <path class="cls-8" d="M61.68,79.2c0-.5,.1-.95,.29-1.33,.19-.38,.46-.71,.8-.96,.34-.26,.76-.45,1.24-.58,.49-.13,1.02-.19,1.61-.19h3.47v9.34h-2.09v-3.17h-1.33l-2.21,3.17h-2.34l2.57-3.62c-.65-.19-1.15-.5-1.49-.94-.35-.43-.52-1.01-.52-1.73Zm5.33,1.46v-2.86h-1.22c-.58,0-1.05,.11-1.41,.32-.37,.21-.55,.58-.55,1.08s.16,.89,.5,1.12c.33,.23,.8,.34,1.41,.34h1.28Z"/>
    </g>
    <g>
      <path class="cls-8" d="M28.67,114.96l3.83-8.57h2.7v12.91h-2.2v-9.7l-3.47,7.72-1.21,.02h-.77l-3.4-7.87v9.83h-1.98v-12.91h2.92l3.58,8.57Z"/>
      <path class="cls-8" d="M43.13,117.66c-.1,.22-.22,.43-.39,.65-.16,.22-.36,.41-.59,.58-.23,.17-.51,.32-.84,.42-.32,.11-.7,.16-1.13,.16-.41,0-.79-.06-1.13-.17-.35-.11-.65-.28-.91-.51-.26-.23-.46-.51-.61-.86s-.22-.73-.22-1.18c0-1.02,.38-1.78,1.13-2.29,.76-.51,1.82-.76,3.2-.76h1.42v-.58c0-.61-.16-1.04-.47-1.27-.31-.23-.83-.35-1.55-.35-.61,0-1.19,.09-1.72,.26-.53,.17-1.01,.38-1.41,.6v-1.75c.37-.21,.86-.4,1.48-.58,.61-.18,1.28-.27,2-.27,1.2,0,2.13,.25,2.78,.75,.65,.5,.98,1.29,.98,2.38v4.88c0,.11,0,.23,0,.37,0,.14,.01,.28,.02,.42,0,.14,.01,.28,.03,.41,.01,.13,.02,.23,.04,.32h-1.93c-.04-.17-.07-.4-.1-.7-.03-.3-.05-.57-.06-.81l-.02-.13Zm-2.38,.2c.44,0,.81-.09,1.11-.28,.29-.19,.53-.4,.71-.65,.18-.25,.31-.49,.38-.73,.07-.24,.11-.41,.11-.5v-.63h-1.3c-.83,0-1.43,.13-1.82,.39-.38,.26-.58,.62-.58,1.09,0,.41,.12,.73,.35,.96,.23,.23,.58,.35,1.03,.35Z"/>
      <path class="cls-8" d="M59.45,119.3h-12.06v-9.34h2.09v7.65h2.9v-7.65h2.09v7.65h2.88v-7.65h2.11v9.34Z"/>
      <path class="cls-8" d="M67.17,117.66c-.1,.22-.22,.43-.39,.65-.16,.22-.36,.41-.59,.58-.23,.17-.51,.32-.84,.42-.32,.11-.7,.16-1.13,.16-.41,0-.79-.06-1.13-.17-.35-.11-.65-.28-.91-.51-.26-.23-.46-.51-.61-.86s-.22-.73-.22-1.18c0-1.02,.38-1.78,1.13-2.29,.76-.51,1.82-.76,3.2-.76h1.42v-.58c0-.61-.16-1.04-.47-1.27-.31-.23-.83-.35-1.55-.35-.61,0-1.19,.09-1.72,.26-.53,.17-1.01,.38-1.41,.6v-1.75c.37-.21,.86-.4,1.48-.58,.61-.18,1.28-.27,2-.27,1.2,0,2.13,.25,2.78,.75,.65,.5,.98,1.29,.98,2.38v4.88c0,.11,0,.23,0,.37,0,.14,.01,.28,.02,.42,0,.14,.01,.28,.03,.41,.01,.13,.02,.23,.04,.32h-1.93c-.04-.17-.07-.4-.1-.7-.03-.3-.05-.57-.06-.81l-.02-.13Zm-2.38,.2c.44,0,.81-.09,1.11-.28,.29-.19,.53-.4,.71-.65,.18-.25,.31-.49,.38-.73,.07-.24,.11-.41,.11-.5v-.63h-1.3c-.83,0-1.43,.13-1.82,.39-.38,.26-.58,.62-.58,1.09,0,.41,.12,.73,.35,.96,.23,.23,.58,.35,1.03,.35Z"/>
    </g>
    <g>
      <path class="cls-8" d="M31.46,140.21h4.39c1.54,0,2.71,.24,3.51,.72,.8,.48,1.21,1.29,1.21,2.43,0,.47-.07,.87-.2,1.21-.13,.34-.32,.64-.57,.88-.25,.25-.54,.45-.89,.6s-.73,.28-1.15,.36c1.08,.13,1.9,.43,2.45,.88,.55,.46,.83,1.15,.83,2.09,0,.67-.13,1.25-.4,1.72-.26,.47-.63,.86-1.1,1.15-.47,.29-1.02,.51-1.66,.65-.64,.14-1.33,.21-2.07,.21h-4.36v-12.91Zm2.18,1.87v3.46h2.32c.72,0,1.3-.15,1.75-.46,.44-.31,.67-.79,.67-1.46,0-.6-.2-1.01-.6-1.22-.4-.21-.97-.32-1.7-.32h-2.43Zm0,5.33v3.83h2.39c.41,0,.78-.03,1.12-.1,.34-.07,.62-.17,.86-.32,.24-.15,.43-.35,.56-.59,.13-.25,.2-.55,.2-.91,0-.71-.23-1.2-.69-1.48-.46-.28-1.2-.42-2.22-.42h-2.21Z"/>
      <path class="cls-8" d="M48.4,151.48c-.1,.22-.22,.43-.39,.65-.16,.22-.36,.41-.59,.58-.23,.17-.51,.32-.84,.42-.32,.11-.7,.16-1.13,.16-.41,0-.79-.06-1.13-.17-.35-.11-.65-.28-.91-.51-.26-.23-.46-.51-.61-.86s-.22-.73-.22-1.18c0-1.02,.38-1.78,1.13-2.29,.76-.51,1.82-.76,3.2-.76h1.42v-.58c0-.61-.16-1.04-.47-1.27-.31-.23-.83-.35-1.55-.35-.61,0-1.19,.09-1.72,.26-.53,.17-1.01,.38-1.41,.6v-1.75c.37-.21,.86-.4,1.48-.58,.61-.18,1.28-.27,2-.27,1.2,0,2.13,.25,2.78,.75,.65,.5,.98,1.29,.98,2.38v4.88c0,.11,0,.23,0,.37,0,.14,.01,.28,.02,.42,0,.14,.01,.28,.03,.41,.01,.13,.02,.23,.04,.32h-1.93c-.04-.17-.07-.4-.1-.7-.03-.3-.05-.57-.06-.81l-.02-.13Zm-2.38,.2c.44,0,.81-.09,1.11-.28,.29-.19,.53-.4,.71-.65,.18-.25,.31-.49,.38-.73,.07-.24,.11-.41,.11-.5v-.63h-1.3c-.83,0-1.43,.13-1.82,.39-.38,.26-.58,.62-.58,1.09,0,.41,.12,.73,.35,.96,.23,.23,.58,.35,1.03,.35Z"/>
      <path class="cls-8" d="M56.97,153.3c-.76,0-1.43-.11-2.03-.33s-1.11-.54-1.53-.95c-.42-.41-.74-.92-.97-1.52-.23-.6-.34-1.28-.34-2.05s.11-1.43,.34-2.03c.23-.6,.55-1.11,.97-1.52,.42-.41,.94-.73,1.55-.95s1.3-.33,2.05-.33c.65,0,1.22,.07,1.7,.22s.87,.32,1.16,.54v1.73c-.37-.24-.78-.43-1.22-.56s-.94-.2-1.52-.2c-1.93,0-2.9,1.04-2.9,3.12s.95,3.12,2.84,3.12c.61,0,1.14-.07,1.57-.21s.84-.32,1.22-.53v1.72c-.31,.2-.7,.38-1.17,.53-.47,.15-1.04,.22-1.73,.22Z"/>
      <path class="cls-8" d="M61.68,146.83c0-.5,.1-.95,.29-1.33,.19-.38,.46-.71,.8-.96,.34-.26,.76-.45,1.24-.58s1.02-.19,1.61-.19h3.47v9.34h-2.09v-3.17h-1.33l-2.21,3.17h-2.34l2.57-3.62c-.65-.19-1.15-.5-1.49-.94s-.52-1.01-.52-1.73Zm5.33,1.46v-2.86h-1.22c-.58,0-1.05,.11-1.41,.32s-.55,.58-.55,1.08,.16,.89,.5,1.12c.33,.23,.8,.34,1.41,.34h1.28Z"/>
    </g>
    <g>
      <path class="cls-8" d="M36.11,181.57h-1.26v5.36h-2.18v-12.91h2.18v5.67h1.3l4.18-5.67h2.34l-4.79,6.44,4.99,6.46h-2.63l-4.12-5.36Z"/>
      <path class="cls-8" d="M49.41,185.3c-.1,.22-.22,.43-.39,.65-.16,.22-.36,.41-.59,.59-.23,.17-.51,.31-.84,.42-.32,.11-.7,.16-1.13,.16-.41,0-.79-.06-1.13-.17-.35-.11-.65-.29-.91-.51-.26-.23-.46-.51-.61-.85-.15-.34-.22-.74-.22-1.18,0-1.02,.38-1.79,1.13-2.29s1.82-.77,3.2-.77h1.42v-.58c0-.61-.16-1.04-.47-1.27-.31-.23-.83-.35-1.55-.35-.61,0-1.19,.09-1.72,.26-.53,.17-1.01,.38-1.41,.6v-1.75c.37-.2,.86-.4,1.48-.58,.61-.18,1.28-.27,2-.27,1.2,0,2.13,.25,2.78,.75,.65,.5,.98,1.29,.98,2.38v4.88c0,.11,0,.23,0,.37,0,.14,.01,.28,.02,.42,0,.14,.01,.28,.03,.41,.01,.13,.02,.23,.04,.31h-1.93c-.04-.17-.07-.4-.1-.7-.03-.3-.05-.57-.06-.81l-.02-.13Zm-2.38,.2c.44,0,.81-.09,1.11-.28,.29-.19,.53-.4,.71-.65,.18-.25,.31-.49,.38-.73,.07-.24,.11-.41,.11-.5v-.63h-1.3c-.83,0-1.43,.13-1.82,.39-.38,.26-.58,.62-.58,1.09,0,.41,.12,.73,.35,.96,.23,.23,.58,.35,1.03,.35Z"/>
      <path class="cls-8" d="M57.72,179.28v7.65h-2.09v-7.65h-2.83v-1.69h7.79v1.69h-2.88Z"/>
      <path class="cls-8" d="M61.68,180.65c0-.5,.1-.95,.29-1.33,.19-.38,.46-.71,.8-.96,.34-.26,.76-.45,1.24-.58s1.02-.19,1.61-.19h3.47v9.34h-2.09v-3.17h-1.33l-2.21,3.17h-2.34l2.57-3.62c-.65-.19-1.15-.5-1.49-.94-.35-.43-.52-1.01-.52-1.73Zm5.33,1.46v-2.86h-1.22c-.58,0-1.05,.11-1.41,.32-.37,.22-.55,.58-.55,1.08s.16,.89,.5,1.12c.33,.23,.8,.34,1.41,.34h1.28Z"/>
    </g>
    <path class="cls-8" d="M122.93,47.1l-.04-10.85-3.55,2.73v-1.82s3.82-2.95,3.82-2.95h1.39s.04,12.88,.04,12.88h-1.66Z"/>
    <path class="cls-8" d="M191.71,47.12v-1.67c1.1-.88,2.04-1.67,2.84-2.36s1.45-1.33,1.97-1.91c.52-.58,.91-1.13,1.16-1.65,.25-.52,.37-1.07,.37-1.63,0-.73-.23-1.32-.7-1.75-.46-.44-1.15-.65-2.04-.65-.59,0-1.15,.11-1.69,.33-.54,.22-1.02,.5-1.44,.85l-.2-1.69c.41-.3,.91-.53,1.5-.7,.59-.16,1.26-.25,1.99-.25,.7,0,1.31,.09,1.84,.26,.53,.18,.97,.43,1.33,.75,.36,.32,.64,.71,.82,1.17,.19,.46,.28,.96,.29,1.51,0,.72-.14,1.4-.43,2.04-.29,.64-.71,1.28-1.25,1.89-.54,.62-1.2,1.25-1.97,1.89-.78,.64-1.65,1.31-2.62,2.02l6.41-.02v1.53s-8.17,.03-8.17,.03Z"/>
    <path class="cls-8" d="M269,47.29c-.72,0-1.37-.08-1.96-.25-.59-.17-1.06-.41-1.42-.72l.43-1.58c.33,.27,.72,.53,1.2,.76,.47,.23,1.05,.35,1.72,.34,1.01,0,1.76-.21,2.25-.63,.49-.42,.74-1.01,.73-1.77,0-.72-.22-1.28-.66-1.69s-1.13-.61-2.08-.6h-1.8s0-1.47,0-1.47h1.87c.66,0,1.2-.2,1.61-.57,.41-.37,.62-.9,.62-1.59,0-.62-.21-1.12-.63-1.47-.42-.36-1.06-.54-1.94-.53-.59,0-1.13,.11-1.64,.32-.5,.21-.91,.45-1.22,.71l-.26-1.6c.84-.59,1.91-.89,3.2-.89,.65,0,1.22,.08,1.73,.25,.5,.17,.93,.4,1.28,.69,.35,.29,.61,.65,.8,1.06,.18,.41,.27,.87,.27,1.38,0,.4-.06,.76-.18,1.08s-.28,.61-.47,.85-.43,.44-.7,.59c-.27,.15-.55,.26-.85,.34,.36,.06,.71,.17,1.04,.35,.33,.17,.62,.39,.88,.66,.25,.27,.46,.59,.61,.97,.15,.38,.23,.8,.23,1.27,0,.55-.11,1.06-.33,1.52s-.53,.86-.94,1.19c-.41,.33-.9,.59-1.47,.78-.57,.19-1.2,.28-1.9,.29Z"/>
    <path class="cls-8" d="M346.17,44.02v3.08s-1.56,0-1.56,0v-3.08s-5.61,.02-5.61,.02v-1.1s5.02-8.73,5.02-8.73h2.11s.03,8.45,.03,8.45h1.75s0,1.34,0,1.34h-1.75Zm-1.59-8.07l-3.94,6.75h3.96s-.02-6.75-.02-6.75Z"/>
    <path class="cls-8" d="M416.72,47.29c-.71,0-1.36-.07-1.96-.21-.6-.14-1.08-.33-1.42-.57l.41-1.6c.35,.24,.76,.45,1.24,.64,.47,.19,1.05,.29,1.74,.28,.9,0,1.6-.27,2.1-.79,.5-.52,.74-1.21,.74-2.06,0-.9-.23-1.55-.68-1.96s-1.03-.61-1.74-.61c-.58,0-1.04,.09-1.38,.26-.34,.17-.6,.35-.76,.54h-1.3s-.02-6.98-.02-6.98l6.84-.02v1.53s-5.38,.02-5.38,.02v3.89c.25-.18,.55-.34,.9-.47s.79-.2,1.3-.2c.55,0,1.06,.08,1.54,.25,.47,.17,.89,.42,1.23,.75,.35,.33,.63,.75,.83,1.25,.21,.5,.31,1.07,.31,1.72,0,.65-.1,1.24-.3,1.77-.2,.54-.5,.99-.89,1.37-.39,.38-.86,.67-1.43,.89s-1.21,.32-1.93,.32Z"/>
    <path class="cls-8" d="M491.25,47.36c-.68,0-1.31-.11-1.87-.33s-1.04-.54-1.43-.97c-.4-.42-.7-.95-.91-1.56-.21-.62-.32-1.32-.32-2.1,0-1.1,.18-2.1,.56-2.98,.38-.88,.84-1.66,1.39-2.33,.55-.67,1.14-1.24,1.77-1.71,.63-.46,1.19-.83,1.7-1.1h2.45s0,.15,0,.15c-1.6,.83-2.92,1.74-3.95,2.71-1.03,.97-1.7,2.05-2,3.26,.35-.5,.76-.89,1.24-1.15,.48-.26,1.08-.39,1.8-.39,.54,0,1.04,.08,1.51,.26,.47,.17,.88,.43,1.24,.78,.35,.35,.63,.78,.83,1.3,.2,.52,.3,1.14,.3,1.84,0,.65-.1,1.24-.31,1.76-.21,.53-.5,.98-.89,1.36-.38,.38-.84,.67-1.37,.88-.53,.21-1.1,.31-1.73,.31Zm-.06-1.4c.38,0,.74-.06,1.06-.17,.32-.12,.6-.29,.84-.52,.24-.23,.42-.53,.55-.89,.13-.36,.2-.79,.19-1.28,0-.97-.23-1.68-.68-2.14-.45-.46-1.07-.69-1.85-.68-.37,0-.7,.05-.98,.14-.28,.09-.54,.22-.77,.38-.23,.16-.44,.35-.63,.57-.18,.22-.36,.46-.53,.72v.34c0,.66,.08,1.21,.22,1.67s.34,.82,.59,1.09,.54,.47,.88,.6c.34,.12,.7,.19,1.1,.18Z"/>
    <path class="cls-8" d="M561.93,47.11l5.45-11.38-6.57,.02v-1.53s8.31-.03,8.31-.03v1.44s-5.45,11.47-5.45,11.47h-1.75Z"/>
    <path class="cls-8" d="M638.84,47.28c-.62,0-1.2-.08-1.73-.24-.53-.16-.98-.4-1.37-.71-.39-.32-.69-.7-.9-1.15-.22-.45-.33-.96-.33-1.54,0-.83,.21-1.53,.65-2.11,.44-.58,1.02-1.01,1.75-1.28-.6-.24-1.08-.6-1.43-1.08s-.53-1.09-.54-1.83c0-.53,.1-1,.29-1.41,.2-.41,.47-.75,.81-1.04,.34-.28,.75-.5,1.22-.64,.47-.15,.99-.22,1.54-.22,.54,0,1.04,.07,1.5,.2,.46,.14,.87,.34,1.22,.62,.35,.28,.62,.61,.82,1.01,.2,.4,.3,.87,.3,1.41,0,.73-.17,1.35-.53,1.85-.36,.5-.83,.87-1.42,1.11,.72,.25,1.3,.66,1.74,1.22,.44,.56,.66,1.26,.66,2.1,0,.58-.1,1.1-.32,1.56-.21,.46-.51,.85-.9,1.17-.38,.32-.83,.56-1.35,.73-.52,.17-1.08,.26-1.69,.26Zm0-1.4c.37,0,.72-.06,1.04-.17,.32-.12,.59-.28,.83-.49s.42-.47,.55-.79c.13-.31,.2-.67,.19-1.07,0-.4-.07-.75-.2-1.06-.13-.31-.32-.57-.55-.78-.24-.21-.51-.37-.83-.48-.32-.11-.66-.17-1.04-.17-.38,0-.74,.06-1.07,.18-.33,.12-.61,.28-.85,.49-.24,.21-.43,.47-.56,.79-.13,.31-.19,.67-.19,1.07,0,.4,.07,.75,.2,1.07,.13,.31,.32,.57,.56,.78s.53,.37,.86,.48,.69,.17,1.07,.17Zm-.02-6.26c.65,0,1.17-.19,1.58-.56,.41-.38,.61-.89,.61-1.54s-.21-1.16-.62-1.53c-.41-.37-.94-.55-1.59-.55-.64,0-1.17,.19-1.59,.56-.43,.37-.64,.88-.63,1.53s.22,1.16,.64,1.54c.43,.37,.96,.56,1.59,.55Z"/>
    <path class="cls-8" d="M712.51,34.02c.68,0,1.3,.11,1.86,.33,.56,.22,1.04,.54,1.43,.97,.4,.43,.7,.95,.92,1.56,.21,.62,.32,1.32,.32,2.1,0,1.1-.17,2.1-.52,2.99-.35,.89-.78,1.67-1.3,2.34-.51,.67-1.06,1.24-1.65,1.71-.59,.46-1.11,.83-1.56,1.09h-2.47s0-.15,0-.15c1.51-.83,2.75-1.73,3.71-2.7,.96-.97,1.6-2.05,1.91-3.25-.35,.5-.76,.88-1.25,1.14s-1.08,.38-1.79,.38c-.54,0-1.05-.08-1.52-.25-.47-.17-.89-.42-1.25-.77s-.63-.78-.83-1.31c-.2-.53-.3-1.15-.3-1.85,0-.64,.1-1.22,.31-1.75,.21-.53,.5-.98,.89-1.36,.38-.38,.83-.67,1.36-.89,.52-.21,1.1-.32,1.74-.32Zm.08,1.4c-.78,0-1.42,.24-1.92,.7-.5,.47-.75,1.19-.75,2.17,0,.99,.23,1.72,.69,2.18,.46,.46,1.07,.69,1.84,.69,.37,0,.7-.05,.99-.14s.54-.22,.77-.38,.43-.35,.62-.57c.19-.22,.36-.46,.53-.72v-.36c0-.67-.08-1.22-.22-1.68s-.34-.82-.59-1.1c-.25-.28-.54-.48-.88-.6-.34-.13-.7-.19-1.08-.19Z"/>
    <g>
      <path class="cls-8" d="M781.88,47.12l-.04-10.85-3.55,2.73v-1.82s3.82-2.95,3.82-2.95h1.39s.04,12.88,.04,12.88h-1.66Z"/>
      <path class="cls-8" d="M790.46,47.27c-.61,0-1.18-.12-1.7-.38-.52-.26-.97-.66-1.35-1.2s-.68-1.23-.89-2.07c-.21-.83-.32-1.83-.33-2.98,0-1.15,.1-2.14,.3-2.98,.21-.83,.5-1.52,.88-2.05,.38-.53,.83-.93,1.35-1.19,.52-.26,1.09-.39,1.7-.39s1.18,.12,1.69,.37c.52,.25,.96,.64,1.33,1.17s.67,1.21,.88,2.04,.32,1.82,.33,2.97-.1,2.15-.3,2.98c-.21,.83-.5,1.53-.87,2.08-.37,.55-.81,.96-1.33,1.23-.52,.26-1.08,.4-1.69,.4Zm-.02-1.42c.41,0,.77-.09,1.08-.27,.31-.18,.57-.48,.79-.88,.22-.41,.38-.95,.49-1.61,.11-.67,.17-1.48,.16-2.44,0-.96-.06-1.77-.17-2.44-.11-.67-.27-1.2-.49-1.61-.22-.41-.48-.7-.79-.88-.31-.18-.67-.27-1.08-.27-.41,0-.77,.09-1.09,.27-.32,.18-.59,.48-.81,.88-.22,.41-.39,.95-.5,1.61-.11,.67-.17,1.48-.16,2.44,0,.96,.06,1.77,.18,2.44,.12,.67,.28,1.2,.5,1.61,.22,.41,.49,.7,.8,.88,.32,.18,.68,.27,1.09,.27Z"/>
    </g>
  </g>
</svg>